<mxfile host="app.diagrams.net" modified="2023-07-04T01:05:30.821Z" agent="Mozilla/5.0 (Windows NT 10.0; Win64; x64) AppleWebKit/537.36 (KHTML, like Gecko) Chrome/114.0.0.0 Safari/537.36 Edg/114.0.1823.67" etag="9lW3xNKK1bzKBbGlrXIE" version="21.5.2" type="github">
  <diagram name="第 1 页" id="dCJrmqydDvyXy77gQCTh">
    <mxGraphModel dx="1306" dy="749" grid="1" gridSize="10" guides="1" tooltips="1" connect="1" arrows="1" fold="1" page="1" pageScale="1" pageWidth="827" pageHeight="1169" math="0" shadow="0">
      <root>
        <mxCell id="0" />
        <mxCell id="1" parent="0" />
        <mxCell id="Dd8v9I4mNNgwvESglM6l-3" value="" style="edgeStyle=orthogonalEdgeStyle;rounded=0;orthogonalLoop=1;jettySize=auto;html=1;" edge="1" parent="1" source="Dd8v9I4mNNgwvESglM6l-1" target="Dd8v9I4mNNgwvESglM6l-2">
          <mxGeometry relative="1" as="geometry" />
        </mxCell>
        <mxCell id="Dd8v9I4mNNgwvESglM6l-1" value="register" style="rounded=1;whiteSpace=wrap;html=1;" vertex="1" parent="1">
          <mxGeometry x="90" y="350" width="120" height="60" as="geometry" />
        </mxCell>
        <mxCell id="Dd8v9I4mNNgwvESglM6l-5" value="进行用户验证" style="edgeStyle=orthogonalEdgeStyle;rounded=0;orthogonalLoop=1;jettySize=auto;html=1;" edge="1" parent="1" source="Dd8v9I4mNNgwvESglM6l-2" target="Dd8v9I4mNNgwvESglM6l-4">
          <mxGeometry relative="1" as="geometry">
            <mxPoint as="offset" />
          </mxGeometry>
        </mxCell>
        <mxCell id="Dd8v9I4mNNgwvESglM6l-2" value="Silent login" style="rounded=1;whiteSpace=wrap;html=1;" vertex="1" parent="1">
          <mxGeometry x="290" y="350" width="120" height="60" as="geometry" />
        </mxCell>
        <mxCell id="Dd8v9I4mNNgwvESglM6l-4" value="fill out user_profile" style="whiteSpace=wrap;html=1;rounded=1;" vertex="1" parent="1">
          <mxGeometry x="570" y="350" width="120" height="60" as="geometry" />
        </mxCell>
      </root>
    </mxGraphModel>
  </diagram>
</mxfile>
